<?xml version="1.0" encoding="UTF-8" standalone="no"?>
<!-- Created with Inkscape (http://www.inkscape.org/) -->

<svg
   width="68.607796mm"
   height="69.540039mm"
   viewBox="0 0 68.607796 69.540039"
   version="1.1"
   id="svg1"
   xml:space="preserve"
   xmlns="http://www.w3.org/2000/svg"
   xmlns:svg="http://www.w3.org/2000/svg"><defs
     id="defs1" /><g
     id="layer1"
     transform="translate(-142.08536,-252.54589)"><g
       id="g9"
       transform="matrix(1.0356036,0,0,1.0356036,-6.2800885,-9.8168286)"><path
         style="fill:#ffffff;stroke-width:0.264583"
         d="m 143.28704,287.35438 7.90047,-3.3619 8.16462,-10.03768 45.14553,-3.65006 3.26585,10.44591 -0.3722,3.04972 -13.68885,5.44633 -11.61443,20.64789 -21.98586,-12.69354 -8.96269,-9.31837 z"
         id="path4-7" /><path
         style="fill:#ffffff;stroke-width:0.11899"
         d="m 158.25471,268.48172 c 0,0 23.90519,14.18495 37.83405,-15.13891 6.25004,2.72389 7.75233,3.64451 11.86701,5.88004 2.81257,7.87141 1.22926,15.41662 -0.17582,21.52578 -8.50384,0.0533 -17.9707,-0.0282 -17.9707,-0.0282 l -12.62995,16.38056 -14.62817,-22.18457 -7.05156,9.06589 c 0,0 -2.32229,0.0577 -4.27979,-0.0188 0.18248,-7.53726 7.03498,-15.48009 7.03498,-15.48009 z"
         id="path1-1" /><path
         style="fill:#ffffff;stroke-width:0.11899"
         d="m 143.26471,287.37959 13.82866,-0.73353 5.18379,-6.53557 14.83857,23.31618 14.40637,-19.54587 c 0,0 8.65614,-0.0483 15.88209,-0.0718 -5.9927,25.29082 -29.7103,36.68309 -29.7103,36.68309 0,0 -26.01226,-11.81157 -26.38293,-31.79145 -2.60251,-0.43516 -8.04624,-1.32124 -8.04624,-1.32124 z"
         id="path2-1" /></g><path
       style="fill:#ffffff;stroke-width:0.264583"
       d="m 143.31655,287.731 7.90047,-3.3619 8.16461,-10.03768 45.14555,-3.65006 3.26585,10.44591 -0.37221,3.04972 -13.68885,5.44633 -11.61443,20.64789 -21.98588,-12.69354 -8.96267,-9.31837 z"
       id="path4-1" /><path
       style="fill:#88aa00;stroke-width:0.11899"
       d="m 158.28422,268.85834 c 0,0 23.90519,14.18495 37.83405,-15.13891 6.25005,2.72389 7.75233,3.64451 11.86701,5.88004 2.81258,7.87141 1.22926,15.41662 -0.17581,21.52578 -8.50384,0.0533 -17.9707,-0.0282 -17.9707,-0.0282 l -12.62996,16.38056 -14.62818,-22.18457 -7.05155,9.06589 c 0,0 -2.3223,0.0577 -4.27979,-0.0188 0.18248,-7.53726 7.03497,-15.48009 7.03497,-15.48009 z"
       id="path1-4" /><path
       style="fill:#333333;stroke-width:0.11899"
       d="m 143.29422,287.75621 13.82865,-0.73353 5.18378,-6.53557 14.83858,23.31618 14.40638,-19.54587 c 0,0 8.65614,-0.0483 15.88209,-0.0718 -5.9927,25.29082 -29.71031,36.68309 -29.71031,36.68309 0,0 -26.01225,-11.81157 -26.38293,-31.79145 -2.60252,-0.43516 -8.04624,-1.32124 -8.04624,-1.32124 z"
       id="path2-2" /></g></svg>
