<?xml version="1.0" encoding="UTF-8" standalone="no"?>
<!-- Created with Inkscape (http://www.inkscape.org/) -->

<svg
   width="73.636047mm"
   height="67.149292mm"
   viewBox="0 0 73.636047 67.149292"
   version="1.1"
   id="svg1"
   xml:space="preserve"
   inkscape:version="1.4 (86a8ad7, 2024-10-11)"
   sodipodi:docname="OpenStride.svg"
   xmlns:inkscape="http://www.inkscape.org/namespaces/inkscape"
   xmlns:sodipodi="http://sodipodi.sourceforge.net/DTD/sodipodi-0.dtd"
   xmlns="http://www.w3.org/2000/svg"
   xmlns:svg="http://www.w3.org/2000/svg"><sodipodi:namedview
     id="namedview1"
     pagecolor="#ffffff"
     bordercolor="#111111"
     borderopacity="1"
     inkscape:showpageshadow="0"
     inkscape:pageopacity="0"
     inkscape:pagecheckerboard="1"
     inkscape:deskcolor="#d1d1d1"
     inkscape:document-units="mm"
     inkscape:zoom="1.3772587"
     inkscape:cx="408.78305"
     inkscape:cy="794.69458"
     inkscape:window-width="1920"
     inkscape:window-height="991"
     inkscape:window-x="-9"
     inkscape:window-y="-9"
     inkscape:window-maximized="1"
     inkscape:current-layer="layer1"><inkscape:page
       x="0"
       y="0"
       width="73.636047"
       height="67.149292"
       id="page2"
       margin="0"
       bleed="0" /></sodipodi:namedview><defs
     id="defs1" /><g
     inkscape:label="Calque 1"
     inkscape:groupmode="layer"
     id="layer1"
     transform="translate(-58.642859,-151.42133)"><path
       style="fill:#88aa00;stroke-width:0.11899"
       d="m 73.632854,166.56023 c 0,0 23.90519,14.18495 37.834046,-15.13891 6.25005,2.72389 7.75233,3.64451 11.86701,5.88004 2.81258,7.87141 1.22926,15.41662 -0.17581,21.52578 -8.50384,0.0533 -17.9707,-0.0282 -17.9707,-0.0282 l -12.629956,16.38056 -14.62817,-22.18457 -7.05156,9.06589 c 0,0 -2.322293,0.0577 -4.279785,-0.0188 0.182481,-7.53726 7.034975,-15.48009 7.034975,-15.48009 z"
       id="path1"
       sodipodi:nodetypes="ccccccccccc"
       inkscape:export-filename="D:\web\mysportdata\frontend\src\assets\logo.png"
       inkscape:export-xdpi="96"
       inkscape:export-ydpi="96" /><path
       style="fill:#333333;stroke-width:0.11899"
       d="m 58.642859,185.4581 13.828655,-0.73353 5.18378,-6.53557 14.83857,23.31618 14.406376,-19.54587 c 0,0 8.65614,-0.0483 15.88209,-0.0718 -5.9927,25.29082 -29.710306,36.68309 -29.710306,36.68309 0,0 -26.012258,-11.81157 -26.382924,-31.79145 -2.602519,-0.43516 -8.046241,-1.32124 -8.046241,-1.32124 z"
       id="path2"
       sodipodi:nodetypes="ccccccccc" /><circle
       style="fill:#89a02c;stroke-width:0.11899"
       id="path3"
       cx="129.4449"
       cy="180.21086"
       r="2.8340106" /></g></svg>
